<?xml version="1.0" standalone="no"?>
<!DOCTYPE svg PUBLIC "-//W3C//DTD SVG 20010904//EN"
 "http://www.w3.org/TR/2001/REC-SVG-20010904/DTD/svg10.dtd">
<svg version="1.0" xmlns="http://www.w3.org/2000/svg"
 width="752.000000pt" height="752.000000pt" viewBox="0 0 752.000000 752.000000"
 preserveAspectRatio="xMidYMid meet">
<metadata>
Created by potrace 1.14, written by Peter Selinger 2001-2017
</metadata>
<g transform="translate(0.000000,752.000000) scale(0.100000,-0.100000)"
fill="#000000" stroke="none">
<path d="M3590 5652 c-22 -3 -56 -65 -313 -580 -158 -317 -287 -580 -287 -583
0 -3 108 -5 241 -5 132 1 245 -2 251 -5 9 -6 -9 -54 -77 -214 -15 -34 -356
-854 -375 -900 -7 -16 -16 -39 -20 -50 -15 -38 -51 -120 -61 -138 -16 -29 -1
-33 22 -6 11 13 33 38 47 54 15 17 76 86 137 155 149 171 164 187 211 240 22
25 92 104 154 175 63 72 117 132 120 135 3 3 52 59 110 125 58 66 107 122 110
125 3 3 54 61 114 130 61 69 117 132 125 141 9 9 41 45 71 80 30 35 93 107
140 159 127 143 201 227 268 305 l61 70 -284 3 c-157 1 -285 4 -285 7 0 3 62
128 138 279 77 150 141 280 144 287 5 12 -54 14 -366 14 -204 0 -382 -1 -396
-3z"/>
<path d="M3135 5184 c-33 -8 -68 -16 -78 -19 -122 -29 -382 -158 -444 -221 -8
-8 -18 -14 -22 -14 -14 0 -185 -173 -232 -235 -126 -166 -228 -401 -254 -585
-5 -30 -10 -64 -11 -75 -5 -31 -5 -268 -1 -290 3 -11 8 -42 12 -70 53 -376
303 -736 649 -935 262 -151 587 -207 886 -154 626 111 1085 651 1092 1285 1
143 -12 238 -56 410 -11 40 -70 180 -103 239 -64 117 -142 217 -143 183 0 -5
-21 -30 -47 -58 -93 -101 -88 -83 -45 -145 69 -100 129 -241 157 -370 22 -99
26 -136 25 -239 0 -138 -9 -200 -50 -331 -108 -351 -380 -624 -728 -732 -36
-11 -74 -22 -86 -24 -175 -35 -336 -35 -491 1 -370 84 -679 358 -803 715 -48
138 -62 217 -61 365 0 120 4 163 24 246 9 35 17 71 20 80 8 38 76 190 110 247
87 148 245 304 400 394 68 39 194 93 243 103 30 6 38 17 87 116 30 60 55 113
55 119 0 13 -29 11 -105 -6z"/>
<path d="M4386 2911 c-90 -90 -98 -101 -85 -117 8 -10 50 -53 94 -96 l79 -78
103 102 103 103 -92 92 c-51 51 -95 93 -98 93 -3 0 -50 -45 -104 -99z"/>
<path d="M4618 2681 c-104 -103 -188 -191 -188 -194 0 -16 572 -576 603 -590
119 -57 252 -30 333 67 47 56 64 105 65 179 0 108 -17 131 -329 442 -154 154
-284 281 -289 282 -4 1 -92 -83 -195 -186z"/>
</g>
</svg>
